<svg xmlns="http://www.w3.org/2000/svg" viewBox="0 0 1049.9 1069.4">
  <path fill="none" stroke="#D4D4D4" stroke-width="1.1" d="M311.4 719.8h163.8c4.7 0 8.5-3.8 8.5-8.5v-3.1c0-4.7 3.8-8.5 8.4-8.5H661M286.5 463.4h28.4c4.6 0 8.4-3.8 8.4-8.4V145.8c0-4.6 3.8-8.4 8.5-8.4h29.5M311.4 719.8h41.5c4.6 0 8.4 3.7 8.4 8.4v77c0 4.7 3.8 8.5 8.4 8.5H412M620 441.2h49.4c4.6 0 8.4-3.7 8.4-8.4v-248c0-4.6 3.8-8.4 8.5-8.4h50.6M968.8 445.5h8.6c4.7 0 8.5-3.8 8.5-8.5V215.5c0-4.7-3.8-8.5-8.5-8.5h-63.6"/>
  <path fill="none" stroke="#D4D4D4" stroke-width="1.1" d="M311.4 719.8h41.5c4.6 0 8.4-3.8 8.4-8.5v-231c0-4.7 3.8-8.5 8.4-8.5H412M569.5 137.4h61.9c4.6 0 8.4 3.8 8.4 8.4V494c0 4.6-3.8 8.4-8.4 8.4h-11.5M282.2 116.3h28.5c4.6 0 8.4 3.8 8.4 8.4v34.8c0 4.7 3.8 8.5 8.4 8.5h33.8"/>
  <path fill="#306996" d="M74.3 383.7h212.1v33.8H74.3z"/>
  <text transform="translate(88 405.4)" fill="#FFF" font-family="Arial" font-weight="600" font-size="13.7">
    Genotype (GT)
  </text>
  <path fill="#F5F5F5" d="M74.3 417.5h212.1v30.6H74.3z"/>
  <text transform="translate(88 437.2)" font-family="Arial" font-size="12.7">
    GTID
  </text>
  <text transform="translate(236.5 437.2)" fill="#999" font-family="Arial" font-size="12.7">
    int(11)
  </text>
  <path fill="#F5F5F5" d="M74.3 448.1h212.1v30.6H74.3z"/>
  <text transform="translate(88 467.8)" fill="#6F6F6F" font-family="Arial" font-size="12.7">
    SLID
  </text>
  <text transform="translate(238.9 467.8)" fill="#999" font-family="Arial" font-size="12.7">
    int(11)
  </text>
  <path fill="#F5F5F5" d="M74.3 478.7h212.1v30.6H74.3z"/>
  <text transform="translate(88 498.4)" fill="#6F6F6F" font-family="Arial" font-size="12.7">
    Platform
  </text>
  <text transform="translate(253.4 498.4)" fill="#999" font-family="Arial" font-size="12.7">
    text
  </text>
  <path fill="#F5F5F5" d="M74.3 509.3h212.1v30.6H74.3z"/>
  <text transform="translate(88 529)" fill="#6F6F6F" font-family="Arial" font-size="12.7">
    GenotypingDate
  </text>
  <text transform="translate(249.2 529)" fill="#999" font-family="Arial" font-size="12.7">
    date
  </text>
  <path fill="#F5F5F5" d="M74.3 539.9h212.1v30.6H74.3z"/>
  <text transform="translate(88 559.6)" fill="#6F6F6F" font-family="Arial" font-size="12.7">
    GenotypeCalls
  </text>
  <text transform="translate(253.4 559.6)" fill="#999" font-family="Arial" font-size="12.7">
    text
  </text>
  <path fill="#F5F5F5" d="M74.3 570.5h212.1v30.6H74.3z"/>
  <text transform="translate(88 590.2)" fill="#6F6F6F" font-family="Arial" font-size="12.7">
    Comment
  </text>
  <text transform="translate(253.4 590.2)" fill="#999" font-family="Arial" font-size="12.7">
    text
  </text>
  <path fill="#306996" d="M65.9 670.7h245.5v33.8H65.9z"/>
  <text transform="translate(79.6 692.4)" fill="#FFF" font-family="Arial" font-weight="600" font-size="13.7">
    Trial (TR)
  </text>
  <path fill="#F5F5F5" d="M65.9 704.5h245.5v30.6H65.9z"/>
  <text transform="translate(79.6 724.2)" font-family="Arial" font-size="12.7">
    TRID
  </text>
  <text transform="translate(261.5 724.2)" fill="#999" font-family="Arial" font-size="12.7">
    int(11)
  </text>
  <path fill="#F5F5F5" d="M65.9 735.1h245.5v30.6H65.9z"/>
  <text transform="translate(79.6 754.8)" fill="#6F6F6F" font-family="Arial" font-size="12.7">
    GPSCoordinates
  </text>
  <text transform="translate(278.3 754.8)" fill="#999" font-family="Arial" font-size="12.7">
    text
  </text>
  <path fill="#F5F5F5" d="M65.9 765.7h245.5v30.6H65.9z"/>
  <text transform="translate(79.6 785.4)" fill="#6F6F6F" font-family="Arial" font-size="12.7">
    PlotSize
  </text>
  <text transform="translate(278.3 785.4)" fill="#999" font-family="Arial" font-size="12.7">
    text
  </text>
  <path fill="#F5F5F5" d="M65.9 796.3h245.5v30.6H65.9z"/>
  <text transform="translate(79.6 816)" fill="#6F6F6F" font-family="Arial" font-size="12.7">
    PlotSizeIncludingpaths
  </text>
  <text transform="translate(278.3 816)" fill="#999" font-family="Arial" font-size="12.7">
    text
  </text>
  <path fill="#F5F5F5" d="M65.9 826.9h245.5v30.6H65.9z"/>
  <text transform="translate(79.6 846.6)" fill="#6F6F6F" font-family="Arial" font-size="12.7">
    SoilType
  </text>
  <text transform="translate(278.3 846.6)" fill="#999" font-family="Arial" font-size="12.7">
    text
  </text>
  <path fill="#F5F5F5" d="M65.9 857.5h245.5v30.6H65.9z"/>
  <text transform="translate(79.6 877.2)" fill="#6F6F6F" font-family="Arial" font-size="12.7">
    StartOfTrial
  </text>
  <text transform="translate(274.1 877.2)" fill="#999" font-family="Arial" font-size="12.7">
    date
  </text>
  <path fill="#F5F5F5" d="M65.9 888h245.5v30.6H65.9z"/>
  <text transform="translate(79.6 907.8)" fill="#6F6F6F" font-family="Arial" font-size="12.7">
    EndOfTrial
  </text>
  <text transform="translate(274.1 907.8)" fill="#999" font-family="Arial" font-size="12.7">
    date
  </text>
  <path fill="#F5F5F5" d="M65.9 918.6h245.5v30.6H65.9z"/>
  <text transform="translate(79.6 938.4)" fill="#6F6F6F" font-family="Arial" font-size="12.7">
    Description
  </text>
  <text transform="translate(278.3 938.4)" fill="#999" font-family="Arial" font-size="12.7">
    text
  </text>
  <path fill="#F5F5F5" d="M65.9 949.2h245.5v30.6H65.9z"/>
  <text transform="translate(79.6 969)" fill="#6F6F6F" font-family="Arial" font-size="12.7">
    Manager
  </text>
  <text transform="translate(278.3 969)" fill="#999" font-family="Arial" font-size="12.7">
    text
  </text>
  <path fill="#F5F5F5" d="M65.9 979.8h245.5v30.6H65.9z"/>
  <text transform="translate(79.6 999.6)" fill="#6F6F6F" font-family="Arial" font-size="12.7">
    Comments
  </text>
  <text transform="translate(278.3 999.6)" fill="#999" font-family="Arial" font-size="12.7">
    text
  </text>
  <path fill="#306996" d="M736.9 96.8h176.9v33.8H736.9z"/>
  <text transform="translate(750.6 118.4)" fill="#FFF" font-family="Arial" font-weight="600" font-size="13.7">
    Phenotype (PH)
  </text>
  <path fill="#F5F5F5" d="M736.9 130.5h176.9v30.6H736.9z"/>
  <text transform="translate(750.6 150.3)" font-family="Arial" font-size="12.7">
    PHID
  </text>
  <text transform="translate(863.9 150.3)" fill="#999" font-family="Arial" font-size="12.7">
    int(11)
  </text>
  <path fill="#F5F5F5" d="M736.9 161.1h176.9v30.6H736.9z"/>
  <text transform="translate(750.6 180.9)" fill="#6F6F6F" font-family="Arial" font-size="12.7">
    PLID
  </text>
  <text transform="translate(866.2 180.9)" fill="#999" font-family="Arial" font-size="12.7">
    int(11)
  </text>
  <path fill="#F5F5F5" d="M736.9 191.7h176.9v30.6H736.9z"/>
  <text transform="translate(750.6 211.4)" fill="#6F6F6F" font-family="Arial" font-size="12.7">
    PDID
  </text>
  <text transform="translate(866.2 211.4)" fill="#999" font-family="Arial" font-size="12.7">
    int(11)
  </text>
  <path fill="#F5F5F5" d="M736.9 222.3h176.9v30.6H736.9z"/>
  <text transform="translate(750.6 242)" fill="#6F6F6F" font-family="Arial" font-size="12.7">
    Date
  </text>
  <text transform="translate(876.5 242)" fill="#999" font-family="Arial" font-size="12.7">
    date
  </text>
  <path fill="#F5F5F5" d="M736.9 252.9h176.9v30.6H736.9z"/>
  <text transform="translate(750.6 272.6)" fill="#6F6F6F" font-family="Arial" font-size="12.7">
    Score
  </text>
  <text transform="translate(877.2 272.6)" fill="#999" font-family="Arial" font-size="12.7">
    float
  </text>
  <path fill="#F5F5F5" d="M736.9 283.5h176.9v30.6H736.9z"/>
  <text transform="translate(750.6 303.2)" fill="#6F6F6F" font-family="Arial" font-size="12.7">
    ScoredBy
  </text>
  <text transform="translate(880.8 303.2)" fill="#999" font-family="Arial" font-size="12.7">
    text
  </text>
  <path fill="#F5F5F5" d="M736.9 314.1h176.9v30.6H736.9z"/>
  <text transform="translate(750.6 333.8)" fill="#6F6F6F" font-family="Arial" font-size="12.7">
    Comments
  </text>
  <text transform="translate(880.8 333.8)" fill="#999" font-family="Arial" font-size="12.7">
    text
  </text>
  <path fill="#306996" d="M411.9 734h196.4v33.8H411.9z"/>
  <text transform="translate(425.7 755.7)" fill="#FFF" font-family="Arial" font-weight="600" font-size="13.7">
    Management (MM)
  </text>
  <path fill="#F5F5F5" d="M411.9 767.8h196.4v30.6H411.9z"/>
  <text transform="translate(425.7 787.5)" font-family="Arial" font-size="12.7">
    MMID
  </text>
  <text transform="translate(558.4 787.5)" fill="#999" font-family="Arial" font-size="12.7">
    int(11)
  </text>
  <path fill="#F5F5F5" d="M411.9 798.4h196.4V829H411.9z"/>
  <text transform="translate(425.7 818.1)" fill="#6F6F6F" font-family="Arial" font-size="12.7">
    TRID
  </text>
  <text transform="translate(560.8 818.1)" fill="#999" font-family="Arial" font-size="12.7">
    int(11)
  </text>
  <path fill="#F5F5F5" d="M411.9 829h196.4v30.6H411.9z"/>
  <text transform="translate(425.7 848.7)" fill="#6F6F6F" font-family="Arial" font-size="12.7">
    Treatment
  </text>
  <text transform="translate(575.3 848.7)" fill="#999" font-family="Arial" font-size="12.7">
    text
  </text>
  <path fill="#F5F5F5" d="M411.9 859.6h196.4v30.6H411.9z"/>
  <text transform="translate(425.7 879.3)" fill="#6F6F6F" font-family="Arial" font-size="12.7">
    Composition
  </text>
  <text transform="translate(575.3 879.3)" fill="#999" font-family="Arial" font-size="12.7">
    text
  </text>
  <path fill="#F5F5F5" d="M411.9 890.2h196.4v30.6H411.9z"/>
  <text transform="translate(425.7 909.9)" fill="#6F6F6F" font-family="Arial" font-size="12.7">
    Concentration
  </text>
  <text transform="translate(575.3 909.9)" fill="#999" font-family="Arial" font-size="12.7">
    text
  </text>
  <path fill="#F5F5F5" d="M411.9 920.8h196.4v30.6H411.9z"/>
  <text transform="translate(425.7 940.5)" fill="#6F6F6F" font-family="Arial" font-size="12.7">
    Dosage
  </text>
  <text transform="translate(575.3 940.5)" fill="#999" font-family="Arial" font-size="12.7">
    text
  </text>
  <path fill="#F5F5F5" d="M411.9 951.4h196.4V982H411.9z"/>
  <text transform="translate(425.7 971)" fill="#6F6F6F" font-family="Arial" font-size="12.7">
    Date
  </text>
  <text transform="translate(571 971)" fill="#999" font-family="Arial" font-size="12.7">
    date
  </text>
  <path fill="#F5F5F5" d="M411.9 981.9h196.4v30.6H411.9z"/>
  <text transform="translate(425.7 1001.7)" fill="#6F6F6F" font-family="Arial" font-size="12.7">
    Comments
  </text>
  <text transform="translate(575.3 1001.7)" fill="#999" font-family="Arial" font-size="12.7">
    text
  </text>
  <path fill="#306996" d="M728.5 396.4h240.3v33.8H728.5z"/>
  <text transform="translate(742.2 418)" fill="#FFF" font-family="Arial" font-weight="600" font-size="13.7">
    Phenotype Data (PD)
  </text>
  <path fill="#F5F5F5" d="M728.5 430.2h240.3v30.6H728.5z"/>
  <text transform="translate(742.2 449.9)" font-family="Arial" font-size="12.7">
    PDID
  </text>
  <text transform="translate(918.8 449.9)" fill="#999" font-family="Arial" font-size="12.7">
    int(11)
  </text>
  <path fill="#F5F5F5" d="M728.5 460.8h240.3v30.6H728.5z"/>
  <text transform="translate(742.2 480.5)" fill="#6F6F6F" font-family="Arial" font-size="12.7">
    DescriptionOfTrait
  </text>
  <text transform="translate(935.7 480.5)" fill="#999" font-family="Arial" font-size="12.7">
    text
  </text>
  <path fill="#F5F5F5" d="M728.5 491.4h240.3V522H728.5z"/>
  <text transform="translate(742.2 511)" fill="#6F6F6F" font-family="Arial" font-size="12.7">
    Grouping
  </text>
  <text transform="translate(935.7 511)" fill="#999" font-family="Arial" font-size="12.7">
    text
  </text>
  <path fill="#F5F5F5" d="M728.5 521.9h240.3v30.6H728.5z"/>
  <text transform="translate(742.2 541.7)" fill="#6F6F6F" font-family="Arial" font-size="12.7">
    DescriptionOfMethod
  </text>
  <text transform="translate(935.7 541.7)" fill="#999" font-family="Arial" font-size="12.7">
    text
  </text>
  <path fill="#F5F5F5" d="M728.5 552.5h240.3v30.6H728.5z"/>
  <text transform="translate(742.2 572.3)" fill="#6F6F6F" font-family="Arial" font-size="12.7">
    Comments
  </text>
  <text transform="translate(935.7 572.3)" fill="#999" font-family="Arial" font-size="12.7">
    text
  </text>
  <path fill="#306996" d="M660.9 620.1h256.9v33.8H660.9z"/>
  <text transform="translate(674.6 641.7)" fill="#FFF" font-family="Arial" font-weight="600" font-size="13.7">
    Climate (CL)
  </text>
  <path fill="#F5F5F5" d="M660.9 653.8h256.9v30.6H660.9z"/>
  <text transform="translate(674.6 673.6)" font-family="Arial" font-size="12.7">
    CLID
  </text>
  <text transform="translate(867.9 673.6)" fill="#999" font-family="Arial" font-size="12.7">
    int(11)
  </text>
  <path fill="#F5F5F5" d="M660.9 684.4h256.9V715H660.9z"/>
  <text transform="translate(674.6 704.2)" fill="#6F6F6F" font-family="Arial" font-size="12.7">
    TRID
  </text>
  <text transform="translate(870.2 704.2)" fill="#999" font-family="Arial" font-size="12.7">
    int(11)
  </text>
  <path fill="#F5F5F5" d="M660.9 715h256.9v30.6H660.9z"/>
  <text transform="translate(674.6 734.7)" fill="#6F6F6F" font-family="Arial" font-size="12.7">
    Date
  </text>
  <text transform="translate(880.5 734.7)" fill="#999" font-family="Arial" font-size="12.7">
    date
  </text>
  <path fill="#F5F5F5" d="M660.9 745.6h256.9v30.6H660.9z"/>
  <text transform="translate(674.6 765.3)" fill="#6F6F6F" font-family="Arial" font-size="12.7">
    TemperatureCelcius
  </text>
  <text transform="translate(881.3 765.3)" fill="#999" font-family="Arial" font-size="12.7">
    float
  </text>
  <path fill="#F5F5F5" d="M660.9 776.2h256.9v30.6H660.9z"/>
  <text transform="translate(674.6 796)" fill="#6F6F6F" font-family="Arial" font-size="12.7">
    HumidityPercent
  </text>
  <text transform="translate(881.3 796)" fill="#999" font-family="Arial" font-size="12.7">
    float
  </text>
  <path fill="#F5F5F5" d="M660.9 806.8h256.9v30.6H660.9z"/>
  <text transform="translate(674.6 826.5)" fill="#6F6F6F" font-family="Arial" font-size="12.7">
    DaylengthMinutes
  </text>
  <text transform="translate(881.3 826.5)" fill="#999" font-family="Arial" font-size="12.7">
    float
  </text>
  <path fill="#F5F5F5" d="M660.9 837.4h256.9V868H660.9z"/>
  <text transform="translate(674.6 857.1)" fill="#6F6F6F" font-family="Arial" font-size="12.7">
    PrecipitationMillimeters
  </text>
  <text transform="translate(881.3 857.1)" fill="#999" font-family="Arial" font-size="12.7">
    float
  </text>
  <path fill="#F5F5F5" d="M660.9 868h256.9v30.6H660.9z"/>
  <text transform="translate(674.6 887.7)" fill="#6F6F6F" font-family="Arial" font-size="12.7">
    SunHours
  </text>
  <text transform="translate(881.3 887.7)" fill="#999" font-family="Arial" font-size="12.7">
    float
  </text>
  <path fill="#F5F5F5" d="M660.9 898.6h256.9v30.6H660.9z"/>
  <text transform="translate(674.6 918.3)" fill="#6F6F6F" font-family="Arial" font-size="12.7">
    DroughtIndex
  </text>
  <text transform="translate(881.3 918.3)" fill="#999" font-family="Arial" font-size="12.7">
    float
  </text>
  <path fill="#F5F5F5" d="M660.9 929.2h256.9v30.6H660.9z"/>
  <text transform="translate(674.6 949)" fill="#6F6F6F" font-family="Arial" font-size="12.7">
    Comments
  </text>
  <text transform="translate(884.8 949)" fill="#999" font-family="Arial" font-size="12.7">
    text
  </text>
  <path fill="#306996" d="M411.9 392.2h208V426h-208z"/>
  <text transform="translate(425.7 413.9)" fill="#FFF" font-family="Arial" font-weight="600" font-size="13.7">
    Plot (PL)
  </text>
  <path fill="#F5F5F5" d="M411.9 425.9h208v30.6h-208z"/>
  <text transform="translate(425.7 445.7)" font-family="Arial" font-size="12.7">
    PLID
  </text>
  <text transform="translate(570 445.7)" fill="#999" font-family="Arial" font-size="12.7">
    int(11)
  </text>
  <path fill="#F5F5F5" d="M411.9 456.5h208v30.6h-208z"/>
  <text transform="translate(425.7 476.3)" fill="#6F6F6F" font-family="Arial" font-size="12.7">
    TRID
  </text>
  <text transform="translate(572.3 476.3)" fill="#999" font-family="Arial" font-size="12.7">
    int(11)
  </text>
  <path fill="#F5F5F5" d="M411.9 487.1h208v30.6h-208z"/>
  <text transform="translate(425.7 506.9)" fill="#6F6F6F" font-family="Arial" font-size="12.7">
    SLID
  </text>
  <text transform="translate(572.3 506.9)" fill="#999" font-family="Arial" font-size="12.7">
    int(11)
  </text>
  <path fill="#F5F5F5" d="M411.9 517.7h208v30.6h-208z"/>
  <text transform="translate(425.7 537.5)" fill="#6F6F6F" font-family="Arial" font-size="12.7">
    GPSCoordinates
  </text>
  <text transform="translate(586.8 537.5)" fill="#999" font-family="Arial" font-size="12.7">
    text
  </text>
  <path fill="#F5F5F5" d="M411.9 548.3h208v30.6h-208z"/>
  <text transform="translate(425.7 568)" fill="#6F6F6F" font-family="Arial" font-size="12.7">
    Comments
  </text>
  <text transform="translate(586.8 568)" fill="#999" font-family="Arial" font-size="12.7">
    text
  </text>
  <path fill="#306996" d="M65.9 67.2h216.4V101H65.9z"/>
  <text transform="translate(79.6 88.9)" fill="#FFF" font-family="Arial" font-weight="600" font-size="13.7">
    Germplasm (GP)
  </text>
  <path fill="#F5F5F5" d="M65.9 101h216.4v30.6H65.9z"/>
  <text transform="translate(79.6 120.7)" font-family="Arial" font-size="12.7">
    GPID
  </text>
  <text transform="translate(232.3 120.7)" fill="#999" font-family="Arial" font-size="12.7">
    int(11)
  </text>
  <path fill="#F5F5F5" d="M65.9 131.6h216.4v30.6H65.9z"/>
  <text transform="translate(79.6 151.3)" fill="#6F6F6F" font-family="Arial" font-size="12.7">
    Name
  </text>
  <text transform="translate(249.2 151.3)" fill="#999" font-family="Arial" font-size="12.7">
    text
  </text>
  <path fill="#F5F5F5" d="M65.9 162.2h216.4v30.6H65.9z"/>
  <text transform="translate(79.6 181.9)" fill="#6F6F6F" font-family="Arial" font-size="12.7">
    AlternativeName
  </text>
  <text transform="translate(249.2 181.9)" fill="#999" font-family="Arial" font-size="12.7">
    text
  </text>
  <path fill="#F5F5F5" d="M65.9 192.8h216.4v30.6H65.9z"/>
  <text transform="translate(79.6 212.5)" fill="#6F6F6F" font-family="Arial" font-size="12.7">
    Donor
  </text>
  <text transform="translate(249.2 212.5)" fill="#999" font-family="Arial" font-size="12.7">
    text
  </text>
  <path fill="#F5F5F5" d="M65.9 223.4h216.4V254H65.9z"/>
  <text transform="translate(79.6 243.1)" fill="#6F6F6F" font-family="Arial" font-size="12.7">
    GeographicOrigin
  </text>
  <text transform="translate(249.2 243.1)" fill="#999" font-family="Arial" font-size="12.7">
    text
  </text>
  <path fill="#F5F5F5" d="M65.9 254h216.4v30.6H65.9z"/>
  <text transform="translate(79.6 273.7)" fill="#6F6F6F" font-family="Arial" font-size="12.7">
    Maintaining
  </text>
  <text transform="translate(249.2 273.7)" fill="#999" font-family="Arial" font-size="12.7">
    text
  </text>
  <path fill="#F5F5F5" d="M65.9 284.6h216.4v30.6H65.9z"/>
  <text transform="translate(79.6 304.3)" fill="#6F6F6F" font-family="Arial" font-size="12.7">
    Comments
  </text>
  <text transform="translate(249.2 304.3)" fill="#999" font-family="Arial" font-size="12.7">
    text
  </text>
  <path fill="#306996" d="M361.3 88.3h208.2v33.8H361.3z"/>
  <text transform="translate(375 110)" fill="#FFF" font-family="Arial" font-weight="600" font-size="13.7">
    Seedlot (SL)
  </text>
  <path fill="#F5F5F5" d="M361.3 122.1h208.2v30.6H361.3z"/>
  <text transform="translate(375 141.8)" font-family="Arial" font-size="12.7">
    SLID
  </text>
  <text transform="translate(519.6 141.8)" fill="#999" font-family="Arial" font-size="12.7">
    int(11)
  </text>
  <path fill="#F5F5F5" d="M361.3 152.7h208.2v30.6H361.3z"/>
  <text transform="translate(375 172.4)" fill="#6F6F6F" font-family="Arial" font-size="12.7">
    GPID
  </text>
  <text transform="translate(522 172.4)" fill="#999" font-family="Arial" font-size="12.7">
    int(11)
  </text>
  <path fill="#F5F5F5" d="M361.3 183.3h208.2v30.6H361.3z"/>
  <text transform="translate(375 203)" fill="#6F6F6F" font-family="Arial" font-size="12.7">
    HarvestDate
  </text>
  <text transform="translate(532.2 203)" fill="#999" font-family="Arial" font-size="12.7">
    date
  </text>
  <path fill="#F5F5F5" d="M361.3 213.9h208.2v30.6H361.3z"/>
  <text transform="translate(375 233.6)" fill="#6F6F6F" font-family="Arial" font-size="12.7">
    HarvestLocation
  </text>
  <text transform="translate(536.5 233.6)" fill="#999" font-family="Arial" font-size="12.7">
    text
  </text>
  <path fill="#F5F5F5" d="M361.3 244.5h208.2v30.6H361.3z"/>
  <text transform="translate(375 264.2)" fill="#6F6F6F" font-family="Arial" font-size="12.7">
    ParentSLID
  </text>
  <text transform="translate(522 264.2)" fill="#999" font-family="Arial" font-size="12.7">
    int(11)
  </text>
  <path fill="#F5F5F5" d="M361.3 275.1h208.2v30.6H361.3z"/>
  <text transform="translate(375 294.8)" fill="#6F6F6F" font-family="Arial" font-size="12.7">
    Comments
  </text>
  <text transform="translate(536.5 294.8)" fill="#999" font-family="Arial" font-size="12.7">
    text
  </text>
  <path fill="#428CFF" d="M844.3 1393.6h-10.5v15.8h16.6v-9.7c0-3.3-2.8-6-6.1-6z"/>
  <path fill="#2670DE" d="M850.4 1409.4h-16.6v16.2h10.5c3.3 0 6-2.7 6-6v-10.2z"/>
  <path fill="#2161CF" d="M833.8 1393.6h-9.3a6.1 6.1 0 00-6.1 6.1v19.8c0 3.4 2.7 6.1 6.1 6.1h9.3v-32z"/>
  <path fill="#FFF" d="M838.9 1414h4.4c.7 0 1.2.6 1.2 1.3v4.4c0 .7-.5 1.2-1.2 1.2h-4.4c-.7 0-1.2-.5-1.2-1.2v-4.4c0-.7.5-1.2 1.2-1.2zm0-15.6h4.4c.7 0 1.2.6 1.2 1.3v4.4c0 .6-.5 1.2-1.2 1.2h-4.4c-.7 0-1.2-.6-1.2-1.2v-4.4c0-.7.5-1.3 1.2-1.3zM829 1413h-4.4c-.7 0-1.3-.5-1.3-1.2v-4.4c0-.7.6-1.2 1.3-1.2h4.4c.6 0 1.2.5 1.2 1.2v4.4c0 .7-.6 1.2-1.2 1.2z"/>
  <path fill="#FFF" d="M841.3 1402l-13.2 9.5-1-1.3 13.2-9.5z"/>
  <path fill="#FFF" d="M840.8 1417.3l-1 1.2-12.7-10 1-1.2z"/>
  <path fill="#2161CF" d="M943 1406.8h1.7v1.5l.4-.5.6-.5 1-.5 1.1-.2c.7 0 1.3.2 1.8.5s.9.7 1.2 1.3c.3-.6.7-1 1.3-1.3.5-.3 1-.5 1.7-.5a4 4 0 011.8.4c.4.2.8.5 1 1 .3.3.5.8.6 1.3l.1 1.5v5.5h-1.8v-5.3-1a2 2 0 00-.3-.9l-.6-.6a2 2 0 00-1-.2c-1 0-1.6.3-2 .8s-.5 1.2-.5 2v5.2h-1.8v-5-1.2a2 2 0 00-.3-1l-.6-.6a2 2 0 00-1-.2c-.4 0-.7 0-1 .2-.3.1-.6.3-.8.6-.2.2-.4.5-.5 1-.2.3-.2.8-.2 1.3v5H943v-9.6zm-5.2 5h-1.3l-1.2.3c-.4.1-.7.3-.9.5-.2.3-.3.6-.3 1 0 .5.1.9.5 1.1.4.3.9.4 1.5.4.5 0 .9-.1 1.2-.3l.9-.6.4-.9.2-1v-.5h-1zm-5-3.8c.4-.5 1-.8 1.7-1 .7-.3 1.3-.4 2-.4s1.3 0 1.8.3c.5.1.9.4 1.2.7.3.3.6.6.7 1 .2.3.2.7.2 1.1V1415.5l.1.8H939v-1.4h-.1c-.4.6-.9 1-1.4 1.3-.6.2-1.2.3-2 .3l-1.2-.1a3 3 0 01-1-.6c-.3-.2-.6-.5-.7-.9-.2-.3-.3-.7-.3-1.2 0-.6.2-1.1.4-1.5a3 3 0 011.1-1c.5-.3 1-.5 1.7-.6l2-.1h1.3v-.4l-.1-.8a2 2 0 00-1.1-1c-.3-.2-.6-.2-1-.2a4 4 0 00-1.6.3 4 4 0 00-.6.4l-.5.3-1-1.1zm-7.5-1.2h1.8v1.5l.5-.7a3.3 3.3 0 012.4-1c.3 0 .5 0 .8.2l-.1 1.9a3.8 3.8 0 00-.9-.1c-.9 0-1.5.2-2 .7s-.7 1.3-.7 2.3v4.8h-1.8v-9.6zm-7.6 1.5c-.5 0-1 0-1.3.2l-1 .7-.6 1a4 4 0 00-.2 1.3c0 1 .3 1.8.8 2.3s1.3.9 2.3.9 1.7-.3 2.3-.9c.5-.5.8-1.3.8-2.3 0-.4 0-.9-.2-1.3a2.9 2.9 0 00-1.6-1.7l-1.3-.2zm4.9 8c0 .6-.1 1.3-.4 1.9a4.6 4.6 0 01-2.6 2.5 7.5 7.5 0 01-4.6 0c-.8-.3-1.5-.7-2.2-1.3l1.2-1.5c.5.5 1 .8 1.6 1.1s1.1.4 1.8.4 1.2-.1 1.7-.3a2.6 2.6 0 001.6-1.8l.1-1.2v-1.4a3 3 0 01-1.4 1.3 5 5 0 01-3.8 0c-.6-.2-1.1-.5-1.5-1a4.7 4.7 0 01-1.4-3.4c0-.7.1-1.4.3-2a4.5 4.5 0 014.5-3c.6 0 1.3.1 1.9.4.6.3 1 .7 1.4 1.2v-1.4h1.8v9.4zm-14.7-4.6l-1.3.1c-.5 0-.9.1-1.3.3l-.9.5c-.2.3-.3.6-.3 1 0 .5.2.9.5 1.1.4.3.9.4 1.5.4.5 0 1-.1 1.3-.3l.8-.6.5-.9.1-1v-.5h-1zm-5.1-3.7c.5-.5 1.1-.8 1.8-1 .6-.3 1.3-.4 2-.4s1.2 0 1.7.3c.5.1 1 .4 1.3.7l.7 1 .2 1.1V1416.3H909l-.1-1.4c-.4.6-.9 1-1.4 1.3-.6.2-1.2.3-2 .3l-1.2-.1a3 3 0 01-1-.6c-.3-.2-.6-.5-.7-.9-.2-.3-.3-.7-.3-1.2 0-.6.1-1.1.4-1.5a3 3 0 011.1-1c.5-.3 1-.5 1.7-.6l2-.1h1.3v-.4l-.1-.8a2 2 0 00-1.1-1c-.3-.2-.7-.2-1-.2a4 4 0 00-1.6.3 4 4 0 00-.6.4l-.5.3-1.1-1.1zm-4.7-1.2h1.8v9.5h-1.8v-9.5zm-.4-3.4c0-.3.1-.6.4-.9.2-.2.5-.4.9-.4.3 0 .6.2.9.4.3.3.4.6.4 1 0 .3-.1.6-.4.9-.3.2-.6.3-1 .3-.3 0-.6 0-.8-.3-.3-.3-.4-.6-.4-1zm-7.4 11.5c.5 0 1-.1 1.3-.3l1-.7c.3-.2.5-.6.6-1a4 4 0 000-2.6c-.1-.4-.3-.8-.6-1l-1-.8c-.4-.2-.8-.2-1.3-.2-.4 0-.9 0-1.3.2l-1 .7a3 3 0 00-.6 1 4 4 0 000 2.7c.2.4.4.8.7 1 .2.3.6.6 1 .7l1.2.3zm5 1.4h-1.8v-1.4c-.4.5-.9 1-1.5 1.2-.6.3-1.2.4-1.9.4a4.8 4.8 0 01-3.5-1.4l-1-1.6a5.7 5.7 0 010-3.9l1-1.6c.5-.4 1-.8 1.6-1a5 5 0 013.9 0c.6.3 1 .7 1.3 1.2v-7h1.9v15.1zm-16.8-1.4c.5 0 .9-.1 1.3-.3a2.8 2.8 0 001.6-1.7 4 4 0 000-2.6l-.6-1c-.2-.3-.6-.6-1-.8l-1.3-.2c-.5 0-1 0-1.3.2l-1 .7a3 3 0 00-.6 1 4 4 0 000 2.7c.1.4.3.8.6 1 .3.3.6.6 1 .7l1.3.3zm-5-13.7h1.9v7c.3-.5.8-.9 1.4-1.2.6-.3 1.2-.4 1.9-.4a4.8 4.8 0 013.5 1.4l1 1.6a5.7 5.7 0 010 4l-1 1.5a5 5 0 01-5.4 1c-.6-.3-1-.7-1.4-1.2v1.4h-1.8v-15.1zm-7.6 13.7c.5 0 1-.1 1.3-.3l1-.7c.3-.2.5-.6.6-1a4 4 0 000-2.6c-.1-.4-.3-.8-.6-1l-1-.8c-.4-.2-.8-.2-1.3-.2-.4 0-.9 0-1.3.2l-1 .7a3 3 0 00-.6 1 4 4 0 000 2.7c.2.4.4.8.7 1 .2.3.6.6 1 .7.3.2.8.3 1.2.3zm5 1.4H869v-1.4c-.4.5-.9 1-1.5 1.2-.6.3-1.2.4-1.9.4s-1.4 0-2-.3c-.5-.3-1-.6-1.5-1.1s-.7-1-1-1.6a5.7 5.7 0 010-3.9l1-1.6c.5-.4 1-.8 1.6-1a5 5 0 013.9 0c.6.3 1 .7 1.3 1.2v-7h1.9v15.1z"/>
  <path fill="#428CFF" d="M971.9 1411.6c0 .4 0 .9.2 1.3.1.4.4.7.6 1s.6.5 1 .7.8.2 1.3.2 1 0 1.3-.2l1-.7c.2-.3.5-.6.6-1a4 4 0 000-2.7 2.9 2.9 0 00-1.6-1.7l-1.3-.2c-.5 0-1 0-1.3.2a2.8 2.8 0 00-1.6 1.7 4 4 0 00-.2 1.4zm-2 0a4.8 4.8 0 011.5-3.6 4.9 4.9 0 013.6-1.4 5 5 0 013.6 1.4 5 5 0 01-3.6 8.5 5 5 0 01-3.6-1.4 4.8 4.8 0 01-1.4-3.5zm-4.1-4.8h1.8v9.5h-1.8v-9.5zm-.5-3.4c0-.3.2-.6.4-.9.3-.2.6-.4 1-.4.3 0 .6.2.9.4.2.3.3.6.3 1 0 .3 0 .6-.3.9-.3.2-.6.3-1 .3-.3 0-.6 0-.9-.3-.2-.3-.4-.6-.4-1zm-3.8 13c-.4 0-.7-.1-1-.4s-.3-.5-.3-.9c0-.3.1-.6.4-.9.2-.3.5-.4.9-.4s.7.1 1 .4c.2.3.3.6.3 1 0 .3-.1.6-.4.8-.2.3-.5.4-.9.4z"/>
</svg>